<?xml version="1.0" encoding="utf-8"?>
<!-- Generator: Adobe Illustrator 27.5.0, SVG Export Plug-In . SVG Version: 6.00 Build 0)  -->
<svg version="1.1" xmlns="http://www.w3.org/2000/svg" xmlns:xlink="http://www.w3.org/1999/xlink" x="0px" y="0px"
	 viewBox="0 0 750 500" style="enable-background:new 0 0 750 500;" xml:space="preserve">
<g id="BACKGROUND">
	<rect style="fill:#FFFFFF;" width="750" height="500"/>
</g>
<g id="OBJECTS">
	<g>
		<path style="fill:#AECAF5;" d="M634.118,409.46c-21.668-12.565-39.323-21.153-49.421-53.268s-33.418-50.675-59.109-62.165
			c-25.691-11.49-30.026-30.957-34.178-58.24c-4.152-27.282-23.412-47.729-43.876-51.65c-20.464-3.921-33.32-44.488-72.936-44.488
			c-39.616,0-52.472,40.567-72.936,44.488c-20.464,3.921-39.724,24.368-43.876,51.65c-4.152,27.282-8.488,46.749-34.178,58.24
			c-25.69,11.49-49.011,30.05-59.109,62.165c-10.098,32.115-27.753,40.703-49.421,53.268
			c-21.668,12.565-19.862,20.701-19.862,20.701h279.382H653.98C653.98,430.161,655.786,422.025,634.118,409.46z"/>
		
			<rect x="280.849" y="101.903" style="fill:none;stroke:#458AF5;stroke-width:2;stroke-miterlimit:10;" width="187.498" height="252.32"/>
		<path style="fill:#458AF5;" d="M424.876,145.436c-10.582-13.292-24.595-23.315-44.328-21.885
			c-19.733,1.43-34.033,4.29-53.494-9.491c-0.192-0.136-0.395-0.278-0.608-0.425c-11.192-7.71-24.514-11.732-38.105-11.732h-7.491
			v252.32h187.498V174.739c0-10.73-8.163-19.693-18.845-20.711C439.426,153.068,430.003,151.876,424.876,145.436z"/>
		<path style="fill:none;stroke:#FFFFFF;stroke-width:2;stroke-linecap:round;stroke-linejoin:round;stroke-miterlimit:10;" d="
			M374.598,291.892v7.882c0,5.84-4.734,10.574-10.574,10.574h-20.182c-6.314,0-11.432,5.118-11.432,11.432v45.755"/>
		<path style="fill:#0E3673;" d="M306.186,366.466c0.527-2.801,0.833-5.68,0.833-8.634s-0.306-5.833-0.833-8.634h-12.334
			c-0.808-3.118-2.034-6.059-3.629-8.767l8.732-8.732c-3.273-4.792-7.418-8.937-12.21-12.21l-8.731,8.731
			c-2.708-1.595-5.649-2.821-8.767-3.629v-12.334c-2.801-0.527-5.68-0.833-8.634-0.833s-5.833,0.306-8.634,0.833v12.334
			c-3.118,0.808-6.059,2.034-8.767,3.629l-8.731-8.731c-4.792,3.272-8.937,7.418-12.21,12.21l8.732,8.732
			c-1.595,2.708-2.821,5.649-3.629,8.767h-12.334c-0.528,2.801-0.833,5.68-0.833,8.634s0.305,5.833,0.833,8.634h12.334
			c0.808,3.118,2.034,6.059,3.629,8.767l-8.732,8.732c3.273,4.792,7.418,8.937,12.21,12.21l8.732-8.732
			c2.708,1.595,5.649,2.821,8.767,3.629v12.334c2.8,0.527,5.68,0.833,8.634,0.833s5.833-0.305,8.634-0.833v-12.334
			c3.118-0.808,6.059-2.034,8.767-3.629l8.732,8.732c4.792-3.273,8.937-7.418,12.21-12.21l-8.732-8.732
			c1.595-2.708,2.821-5.65,3.629-8.767H306.186z M260.612,376.877c-10.518,0-19.044-8.527-19.044-19.044
			c0-10.518,8.526-19.044,19.044-19.044c10.518,0,19.044,8.526,19.044,19.044C279.657,368.35,271.13,376.877,260.612,376.877z"/>
		<path style="fill:#FFFFFF;" d="M318.32,295.868c0.276-1.462,0.435-2.966,0.435-4.508c0-1.543-0.159-3.046-0.435-4.509h-6.441
			c-0.422-1.628-1.062-3.164-1.895-4.578l4.56-4.56c-1.709-2.502-3.874-4.667-6.376-6.376l-4.56,4.56
			c-1.414-0.833-2.95-1.473-4.578-1.895v-6.441c-1.462-0.275-2.966-0.435-4.508-0.435c-1.543,0-3.046,0.16-4.508,0.435v6.441
			c-1.628,0.422-3.164,1.062-4.578,1.895l-4.56-4.56c-2.502,1.709-4.667,3.873-6.376,6.376l4.56,4.56
			c-0.833,1.414-1.473,2.95-1.895,4.578h-6.441c-0.275,1.462-0.435,2.966-0.435,4.509c0,1.542,0.16,3.046,0.435,4.508h6.441
			c0.422,1.628,1.062,3.164,1.895,4.578l-4.56,4.56c1.709,2.502,3.874,4.667,6.376,6.376l4.56-4.56
			c1.414,0.833,2.95,1.473,4.578,1.895v6.441c1.462,0.275,2.966,0.435,4.508,0.435c1.542,0,3.046-0.16,4.508-0.435v-6.441
			c1.628-0.422,3.164-1.062,4.578-1.895l4.56,4.56c2.502-1.709,4.667-3.873,6.376-6.376l-4.56-4.56
			c0.833-1.414,1.473-2.95,1.895-4.578H318.32z M294.522,301.304c-5.492,0-9.945-4.452-9.945-9.945c0-5.492,4.452-9.945,9.945-9.945
			c5.492,0,9.945,4.452,9.945,9.945C304.467,296.852,300.014,301.304,294.522,301.304z"/>
		<g>
			<g>
				<path style="fill:#0E3673;" d="M388.053,287.533h-26.909c-1.923,0-3.481-1.559-3.481-3.481v-19.273h33.872v19.273
					C391.534,285.974,389.975,287.533,388.053,287.533z"/>
				<rect x="357.663" y="269.371" style="fill:#458AF5;" width="33.872" height="1.832"/>
				<rect x="357.663" y="274.324" style="fill:#458AF5;" width="33.872" height="1.831"/>
				<rect x="357.663" y="279.278" style="fill:#458AF5;" width="33.872" height="1.831"/>
				<path style="fill:#0E3673;" d="M383.809,287.533c0,2.408-4.124,4.359-9.211,4.359c-5.087,0-9.211-1.952-9.211-4.359
					c0-2.408,4.124-4.359,9.211-4.359C379.685,283.174,383.809,285.125,383.809,287.533z"/>
				<path style="fill:#FFFFFF;" d="M374.598,160.82c-23.299,0-42.187,17.531-42.187,39.156c0,9.972,4.019,21.445,10.634,30.915
					c6.299,9.018,10.607,19.273,12.104,30.171l0.289,2.107c0.284,2.07,2.053,3.612,4.142,3.612h30.036
					c2.089,0,3.858-1.542,4.142-3.612l0.289-2.106c1.497-10.898,5.805-21.153,12.104-30.171c6.615-9.47,10.634-20.943,10.634-30.915
					C416.786,178.351,397.898,160.82,374.598,160.82z"/>
				<path style="fill:#FFC300;" d="M374.598,160.82c-23.299,0-42.187,17.531-42.187,39.156c0,1.383,0.081,2.795,0.235,4.227
					c0.173,1.611,0.525,3.212,1.199,4.685c3.871,8.47,12.732,5.649,20.363,4.913c11.221-1.082,13.772,6.921,19.547,9.809
					c8.719,4.359,14.906,1.547,19.969,4.359c2.322,1.29,4.324,3.103,5.613,5.531c1.03,1.94,3.765,2.057,4.943,0.203
					c0.603-0.95,1.228-1.887,1.873-2.812c6.615-9.47,10.634-20.942,10.634-30.915C416.786,178.351,397.898,160.82,374.598,160.82z"
					/>
			</g>
			<g>
				
					<line style="fill:none;stroke:#FFFFFF;stroke-width:2;stroke-linecap:round;stroke-linejoin:round;stroke-miterlimit:10;" x1="375.426" y1="139.65" x2="375.426" y2="151.978"/>
				
					<line style="fill:none;stroke:#FFFFFF;stroke-width:2;stroke-linecap:round;stroke-linejoin:round;stroke-miterlimit:10;" x1="353.941" y1="143.313" x2="358.158" y2="154.898"/>
				
					<line style="fill:none;stroke:#FFFFFF;stroke-width:2;stroke-linecap:round;stroke-linejoin:round;stroke-miterlimit:10;" x1="335.005" y1="154.104" x2="342.93" y2="163.548"/>
				
					<line style="fill:none;stroke:#FFFFFF;stroke-width:2;stroke-linecap:round;stroke-linejoin:round;stroke-miterlimit:10;" x1="320.902" y1="170.72" x2="331.579" y2="176.884"/>
				
					<line style="fill:none;stroke:#FFFFFF;stroke-width:2;stroke-linecap:round;stroke-linejoin:round;stroke-miterlimit:10;" x1="418.086" y1="226.829" x2="428.763" y2="232.993"/>
				
					<line style="fill:none;stroke:#FFFFFF;stroke-width:2;stroke-linecap:round;stroke-linejoin:round;stroke-miterlimit:10;" x1="313.333" y1="191.158" x2="325.473" y2="193.298"/>
				
					<line style="fill:none;stroke:#FFFFFF;stroke-width:2;stroke-linecap:round;stroke-linejoin:round;stroke-miterlimit:10;" x1="423.846" y1="210.644" x2="435.987" y2="212.785"/>
				
					<line style="fill:none;stroke:#FFFFFF;stroke-width:2;stroke-linecap:round;stroke-linejoin:round;stroke-miterlimit:10;" x1="313.21" y1="212.952" x2="325.35" y2="210.811"/>
				
					<line style="fill:none;stroke:#FFFFFF;stroke-width:2;stroke-linecap:round;stroke-linejoin:round;stroke-miterlimit:10;" x1="423.723" y1="193.465" x2="435.864" y2="191.324"/>
				
					<line style="fill:none;stroke:#FFFFFF;stroke-width:2;stroke-linecap:round;stroke-linejoin:round;stroke-miterlimit:10;" x1="320.548" y1="233.473" x2="331.224" y2="227.309"/>
				
					<line style="fill:none;stroke:#FFFFFF;stroke-width:2;stroke-linecap:round;stroke-linejoin:round;stroke-miterlimit:10;" x1="417.732" y1="177.364" x2="428.408" y2="171.2"/>
				
					<line style="fill:none;stroke:#FFFFFF;stroke-width:2;stroke-linecap:round;stroke-linejoin:round;stroke-miterlimit:10;" x1="406.595" y1="164.283" x2="414.52" y2="154.839"/>
				
					<line style="fill:none;stroke:#FFFFFF;stroke-width:2;stroke-linecap:round;stroke-linejoin:round;stroke-miterlimit:10;" x1="391.656" y1="155.801" x2="395.873" y2="144.216"/>
			</g>
		</g>
		<g>
			<path style="fill:#FF6363;" d="M601.459,399.856l5.273,8.859l-1.534,7.117c-0.619,2.872-2.525,5.32-5.196,6.545
				c-2.994,1.374-6.568,3.843-6.771,7.853c0,0,5.414,0,9.492,0c4.078,0,12.727-6.117,17.93-9.141
				c5.203-3.024,7.523-4.641,5.695-7.383c-1.828-2.742-8.93-11.953-8.93-11.953l-4.57-8.438L601.459,399.856z"/>
			<path style="fill:#0E3673;" d="M626.35,413.708c-1.696-2.544-7.921-10.643-8.814-11.802l-10.804,6.81l-1.534,7.117
				c-0.619,2.872-2.525,5.32-5.195,6.545c-2.994,1.374-6.568,3.843-6.771,7.853c0,0,5.414,0,9.492,0
				c4.078,0,12.727-6.117,17.93-9.141C625.858,418.067,628.178,416.45,626.35,413.708z"/>
			<g>
				<path style="fill:#FFFFFF;" d="M398.649,173.016l-13.879,39.69l8.736,3.055l13.879-39.69c0.479-1.368-1.089-3.162-3.501-4.005
					C401.471,171.222,399.128,171.648,398.649,173.016z"/>
				<path style="fill:#0E3673;" d="M403.091,171.839c0.262,0.063,0.526,0.134,0.793,0.227c0.414,0.145,0.791,0.325,1.149,0.519
					c0.745-0.781,1.901-1.105,2.984-0.726l1.715,0.6c1.474,0.516,2.255,2.134,1.739,3.609l-14.783,42.274
					c-0.515,1.474-2.135,2.254-3.609,1.738l-1.715-0.6c-1.475-0.516-2.255-2.134-1.739-3.608l0.447-1.277l-1.888-0.66l-0.447,1.277
					c-0.879,2.515,0.451,5.277,2.967,6.156l1.715,0.6c2.516,0.88,5.278-0.451,6.157-2.966l7.062-20.193l216.349,75.845l0.66-1.888
					L406.297,196.92l7.061-20.193c0.88-2.516-0.451-5.278-2.967-6.157l-1.715-0.6C406.563,169.231,404.29,170.066,403.091,171.839z"
					/>
				<path style="fill:#0E3673;" d="M390.004,211.756c2.412,0.844,3.98,2.637,3.501,4.005c-0.479,1.368-2.822,1.794-5.234,0.95
					c-2.412-0.843-3.98-2.637-3.501-4.005C385.249,211.338,387.592,210.912,390.004,211.756z"/>
			</g>
			<path style="fill:#458AF5;" d="M522.287,251.849l6.469,158.906h21.094c0,0-0.844-25.031,0-43.313
				c0.552-11.971-0.222-24.304-0.822-31.392c-0.36-4.256-0.291-8.531,0.204-12.774l5.118-43.865c0,0,5.063,38.531,13.219,61.031
				c8.156,22.5,34.031,61.875,34.031,61.875l15.521-8.523c-14.277-24.691-19.944-52.249-27.238-63.585
				c-1.719-2.671-2.839-5.682-3.117-8.846l-6.118-69.514H522.287z"/>
			<path style="fill:#0E3673;" d="M584.274,293.058l-3.627-41.209h-58.359l0.026,0.644c0.412,10.124,5.692,19.44,14.198,24.947
				c5.085,3.292,10.736,7.135,16.867,10.294l0.971-8.323c0,0,0.036,0.271,0.106,0.781c0.805,5.854,4.996,10.702,10.69,12.283
				C571.195,294.154,577.592,294.653,584.274,293.058z"/>
			<path style="fill:#477344;" d="M525.324,253.536c0,0,4.464,11.22,32.776,11.22c28.313,0,29.156-2.97,29.156-2.97l-3.656-11.813
				L525.324,253.536z"/>
			<path style="fill:#FF6363;" d="M533.162,151.161c0,0,0.094,4.289-1.172,6.891c-1.266,2.602-3.788,6.961,1.13,7.102l2.878,10.969
				h11.531l-3.234-13.781l3.234-9.633L533.162,151.161z"/>
			<path style="fill:#081E40;" d="M539.127,151.337l-0.258,5.801c0,0,1.137-1.02,2.262-0.492c1.125,0.527,0.246,3.34-1.441,3.726
				l1.16,1.969h3.445c0,0,3.867-2.496,4.43-7.523L539.127,151.337z"/>
			<path style="fill:#A12A2A;" d="M533.12,165.154c2.034,0,4.683-1.359,5.597-2.813c0.38,1.116,0.144,1.984-0.154,2.547
				c-0.271,0.513-0.406,1.09-0.335,1.665c0.159,1.295-0.101,3.563-3.612,4.299L533.12,165.154z"/>
			<path style="fill:#FFC300;" d="M560.256,177.599c0,0,24.891,9.563,39.234,32.344s11.953,34.172-11.813,36.281
				c0,0,2.953,9.844-7.313,9.844c-10.266,0-37.406,0-51.187,0s-12.234-7.734-8.578-11.953l-6.75-15.469
				c0,0-12.516,13.078-20.953,18.563c-8.437,5.484-17.437,4.922-26.016-0.141c-8.578-5.063-23.344-13.781-20.953-24.047
				l-3.656-3.797c0,0,0.844-7.172,4.922-8.297l28.758,9.914c0,0-1.828-3.516,5.977-4.008c0,0,18.422-20.109,24.609-27.563
				c6.188-7.453,13.283-11.738,21.688-11.845C536.631,177.318,560.256,177.599,560.256,177.599z"/>
			
				<line style="fill:none;stroke:#FFFFFF;stroke-width:0.6606;stroke-miterlimit:10;" x1="478.272" y1="222.177" x2="494.514" y2="227.661"/>
			<path style="fill:none;stroke:#FFFFFF;stroke-width:0.6606;stroke-miterlimit:10;" d="M482.42,227.028c0,0,4.57,2.672,6.82,6.609
				"/>
			<path style="fill:#FF6363;" d="M513.85,228.645l9.181-9.774c1.657-1.764,4.574-0.29,4.164,2.096
				c-0.402,2.335-1.138,4.817-2.47,6.694c-2.063,2.906,2.344,11.531-4.125,16.453L513.85,228.645z"/>
			<path style="fill:none;stroke:#FFFFFF;stroke-width:0.6606;stroke-miterlimit:10;" d="M522.287,182.802
				c13.078,5.766,8.702,24.188,4.359,30.516"/>
			<path style="fill:none;stroke:#FFFFFF;stroke-width:0.6606;stroke-miterlimit:10;" d="M579.89,218.095
				c-2.347-7.674-4.69-14.605-6.275-17.715"/>
			<path style="fill:#FF6363;" d="M604.441,240.966c-1.018-1.217-2.353-2.186-3.905-2.784c-2.632-1.013-6.839-3.545-9.201-5.88
				c-6.117-6.047-7.172-13.828-10.975-12.663c3.116,10.319,6.148,21.591,7.319,26.585
				C595.572,245.523,601.094,243.792,604.441,240.966z"/>
			<path style="fill:none;stroke:#FFFFFF;stroke-width:0.6606;stroke-miterlimit:10;" d="M581.209,198.06
				c0,0,1.01,3.182-0.801,12.572"/>
			<line style="fill:none;stroke:#458AF5;stroke-miterlimit:10;" x1="537.772" y1="268.036" x2="551.975" y2="268.036"/>
			<line style="fill:none;stroke:#458AF5;stroke-miterlimit:10;" x1="564.631" y1="268.036" x2="576.444" y2="268.036"/>
			<path style="fill:#0E3673;" d="M601.6,402.317l15.52-8.523c-0.873-1.509-1.712-3.03-2.523-4.557l-15.719,8.858
				C600.577,400.76,601.6,402.317,601.6,402.317z"/>
			<path style="fill:#FF6363;" d="M546.284,407.801c0,0,0.05,7.453,1.737,13.359c0.55,1.925,0.936,3.551,1.206,4.869
				c0.438,2.138-1.209,4.131-3.391,4.131h-31.584c-0.93,0-1.628-0.828-1.497-1.749c0.2-1.408,1.048-3.291,3.977-4.157
				c4.992-1.476,13.008-2.742,15.258-5.906c2.25-3.164,1.195-10.547,1.195-10.547H546.284z"/>
			<path style="fill:#0E3673;" d="M545.837,430.161c2.182,0,3.829-1.993,3.391-4.131c-0.27-1.318-0.656-2.944-1.206-4.869
				c-0.46-1.611-0.795-3.334-1.044-4.992h-14.034c-0.219,0.825-0.526,1.579-0.953,2.18c-2.25,3.164-10.266,4.43-15.258,5.906
				c-2.998,0.887-3.815,2.838-3.99,4.256c-0.109,0.883,0.617,1.65,1.506,1.65H545.837z"/>
			<path style="fill:#0E3673;" d="M528.756,410.755h21.094c0,0-0.076-2.262-0.159-5.906h-21.175L528.756,410.755z"/>
			<path style="fill:#FF6363;" d="M443.678,218.767l-4.078-2.033l-7.978-2.934c-2.246-0.826-3.666-3.046-3.474-5.431l0.101-1.251
				c0.042-0.516,0.35-0.973,0.813-1.205l3.983-1.991c0.605-0.303,1.34-0.143,1.765,0.383l0.748,0.926l3.551,0.563
				c0,0,4.289,3.164,4.043,5.906l4.324,1.512L443.678,218.767z"/>
			<path style="fill:none;stroke:#A12A2A;stroke-width:0.6606;stroke-miterlimit:10;" d="M435.147,206.239l-2.016,1.828
				c0,0,5.203,1.969,4.922,6.937"/>
			<path style="fill:#477344;" d="M447.194,210.927c-4.078,1.125-4.922,8.297-4.922,8.297l3.656,3.797
				c0.884-3.3,2.374-8.561,7.051-10.1L447.194,210.927z"/>
			<path style="fill:#477344;" d="M528.226,177.425l0.986-1.06c1.626-1.747,3.905-2.74,6.292-2.74h19.129
				c4.148,0,7.697,2.98,8.414,7.066l0.354,2.015c1.355,7.719-6.494,13.856-13.623,10.602c-0.904-0.413-1.817-0.874-2.728-1.391
				C539.339,187.554,535.826,179.281,528.226,177.425z"/>
			<path style="fill:#477344;" d="M525.556,150.097l23.544,5.048c0,0,1.417-7.439-5.122-9.338
				c-6.539-1.898-10.477,4.078-10.477,4.078S526.118,147.777,525.556,150.097z"/>
		</g>
		<polygon style="fill:#FFC300;" points="505.055,133.443 509.491,151.337 492.194,135.974 		"/>
		<g>
			
				<ellipse transform="matrix(0.2335 -0.9724 0.9724 0.2335 274.7925 556.8533)" style="fill:#FFC300;" cx="490.602" cy="104.129" rx="37.623" ry="37.623"/>
			<path style="fill:#FF6363;" d="M505.736,88.21c-7.858-4.075-15.134,4.147-15.134,4.147s-7.276-8.222-15.134-4.147
				c-7.186,3.726-6.174,14.01-1.455,21.56c4.329,6.925,11.205,13.001,16.589,15.184c5.384-2.183,12.26-8.258,16.589-15.184
				C511.911,102.22,512.922,91.936,505.736,88.21z"/>
		</g>
		<g>
			<polygon style="fill:#458AF5;" points="181.602,123.815 169.707,137.9 192.016,131.775 			"/>
			
				<ellipse transform="matrix(0.976 -0.2179 0.2179 0.976 -17.9309 47.9936)" style="fill:#458AF5;" cx="208.658" cy="105.303" rx="37.623" ry="37.623"/>
			<polygon style="fill:#FFFFFF;" points="208.658,85.144 215.208,98.416 229.855,100.544 219.257,110.875 221.758,125.463 
				208.658,118.576 195.557,125.463 198.059,110.875 187.461,100.544 202.108,98.416 			"/>
		</g>
		<g>
			<path style="fill:#0E3673;" d="M675.361,385.124l-2.432,43.357c-0.054,0.961-8.199,1.737-18.193,1.737
				s-18.139-0.775-18.193-1.737l-2.432-43.357H675.361z"/>
			<path style="fill:none;stroke:#081E40;stroke-width:0.6606;stroke-miterlimit:10;" d="M670.439,388.218h-31.406
				c0,0,7.781-14.625,15.703-14.625C662.657,373.593,670.439,388.218,670.439,388.218z"/>
			<path style="fill:#FFC300;" d="M673.712,414.518c-0.248,4.412-4.962,7.249-8.884,5.212c-3.67-1.906-6.022-5.924-7.092-9.669
				c-1.875-6.562-6-7.875-15.281-10.125c-1.038-0.252-1.965-0.545-2.794-0.869c-3.005-1.173-4.995-4.056-5.176-7.276l-0.374-6.668
				h41.25L673.712,414.518z"/>
		</g>
		<g>
			<g>
				<path style="fill:#458AF5;" d="M472.848,411.703c0,0,4.688-4.031,7.969-3.375c2.304,0.461,5.763,4.281,7.62,6.516
					c0.843,1.015,1.861,1.871,3.023,2.496c2.624,1.413,7.573,4.385,10.239,7.951c1.933,2.586-0.708,6.103-3.741,4.998l-23.984-8.743
					L472.848,411.703z"/>
				<path style="fill:#FF6363;" d="M473.973,421.547l8.225,2.998c0.526-1.644,0.858-3.649,0.119-5.168
					c-1.196-2.455-6.866-4.083-9.122-4.644L473.973,421.547z"/>
			</g>
			<path style="fill:#FF6363;" d="M405.067,354.223l-4.991,16.457c-2.03,6.694-6.223,12.526-11.922,16.582l-29.493,20.994
				l-4.641-12.407l24.047-20.953l4.219-20.672H405.067z"/>
			<path style="fill:#A12A2A;" d="M380.876,361.13c4.8,0.571,13.663,2.008,20.49,5.294l3.7-12.201h-22.781L380.876,361.13z"/>
			<path style="fill:#0E3673;" d="M470.88,369.27c0,0,3.89,8.955-1.828,20.391c-2.25,4.5-5.625,8.578-10.687,12.375h14.484
				c0,0,8.437,13.781,0,28.125c0,0-70.875,0-88.312,0c-17.437,0-24.187-6.844-24.187-17.906c0-11.063,14.25-19.875,26.25-26.063
				c12-6.188,34.688-16.922,34.688-16.922H470.88z"/>
			<path style="fill:none;stroke:#081E40;stroke-width:0.6606;stroke-miterlimit:10;" d="M458.364,402.036
				c-7.594,6.328-50.4,19.969-50.4,19.969"/>
			<path style="fill:#081E40;" d="M474.757,406.238c-0.949-2.629-1.909-4.202-1.909-4.202h-14.484
				c-3.313,2.761-13.328,6.913-23.567,10.718c0,0,11.239,3.874,20.051,0C462.292,409.481,469.395,406.044,474.757,406.238z"/>
			<path style="fill:none;stroke:#081E40;stroke-width:0.6606;stroke-miterlimit:10;" d="M415.755,423.165c0,0,2.719,0,9.456-6.996"
				/>
			
				<line style="fill:none;stroke:#081E40;stroke-width:0.6606;stroke-miterlimit:10;" x1="429.272" y1="378.317" x2="411.053" y2="387.916"/>
			<path style="fill:#081E40;" d="M379.541,419.195L379.541,419.195c-2.317-7.271,0.912-15.157,7.663-18.714l22.249-11.723
				c0,0-27.797,12.865-34.014,3.832c-8.218,5.386-15.09,11.982-15.09,19.664c0,11.062,6.75,17.906,24.188,17.906
				c2.418,0,5.867,0,10.009,0C387.69,430.161,381.623,425.727,379.541,419.195z"/>
			<path style="fill:#FFC300;" d="M421.092,291.018c2.594-4.028,1.293-11.255-4.232-12.834c-3.823-1.092-7.996,2.352-7.996,2.352
				s-5.133-0.633-6.45,5.19c-1.171,5.181,5.025,5.633,5.025,5.633L421.092,291.018z"/>
			<path style="fill:#FFFFFF;" d="M434.809,307.958c8.508,2.766,14.883,4.828,19.945,15.75
				c5.063,10.922,15.188,37.266,15.188,37.266s7.32,9.844,1.688,9.844c-4.875,0-44.062,0-51.094,0c-7.031,0-3.094-6.656-3.094-6.656
				s-2.776-4.596-3.432-8.721c0,0-3.376-1.035-6.046-3.081l-1.115,7.115h-30.187c0,0,5.25-16.5,7.969-25.219
				c2.719-8.719,5.438-19.969,20.297-24.187L434.809,307.958z"/>
			<path style="fill:#FFC300;" d="M407.964,352.359c0,0-4.71-3.131-6.129-10.768c0,0-2.047,5.204-0.534,8.671
				c0.516,1.182,0.861,2.435,0.829,3.725c-0.048,1.994-0.087,3.26-0.087,3.26h5.154L407.964,352.359z"/>
			<path style="fill:#0E3673;" d="M377.704,356.192c-0.639,2.013-1.043,3.281-1.043,3.281h30.187l0.514-3.281H377.704z"/>
			<path style="fill:#FFC300;" d="M456.964,346.346l-0.803,13.127H425.21l4.562-20.086c-3.705,5.887-11.77,10.608-16.28,12.913
				c-1.298,0.663-1.165,2.564,0.213,3.038c0.195,0.067,0.305,0.101,0.305,0.101c0.656,4.125,3.432,8.721,3.432,8.721
				s-3.938,6.656,3.094,6.656c5.162,0,27.641,0,41.165,0L456.964,346.346z"/>
			<path style="fill:#FF6363;" d="M454.06,357.833l-25.489-0.586l-3.361,23.21l-47.612,33.11l-11.906,12.187l8.719,2.438
				l3.188-3.938c11.719-2.719,10.5-8.086,10.5-8.086l49.138-17.462c5.805-2.063,10.097-7.028,11.298-13.071L454.06,357.833z"/>
			<path style="fill:#A12A2A;" d="M427.807,362.525c5.102,0.558,16.579,2.266,23.966,6.814l2.286-11.506l-25.488-0.586
				L427.807,362.525z"/>
			<path style="fill:#FF6363;" d="M417.723,290.45c0,0,0.633-3.023,2.883-2.391c2.25,0.633,1.477,4.781-0.703,5.555l2.45,5.728
				c1.479,3.46,4.399,6.098,7.991,7.22l4.466,1.395c0,0-5.588,15.75-18.703,15.75c-9.844,0-11.18-13.641-11.18-13.641l8.508-2.813
				l-1.969-5.133c0,0-3.727,0.984-3.938-3.023c-0.211-4.008-1.055-6.68-2.602-9.211c0,0,3.586-3.094,4.359-6.539
				c0,0,1.476,2.742,5.695,3.305C414.981,286.653,415.684,289.747,417.723,290.45z"/>
			<path style="fill:#FFC300;" d="M426.653,277.631c0,3.061-2.482,5.543-5.543,5.543c-3.061,0-5.543-2.482-5.543-5.543
				c0-3.061,2.482-5.543,5.543-5.543C424.171,272.088,426.653,274.569,426.653,277.631z"/>
			<path style="fill:#A12A2A;" d="M411.466,302.122c2.777-0.633,5.555-4.395,6.363-7.488c0,0,1.477,1.652,0,4.711
				c0.316,2.848-1.9,6.537-4.712,7.083L411.466,302.122z"/>
			
				<line style="fill:none;stroke:#A12A2A;stroke-width:0.6606;stroke-miterlimit:10;" x1="412.708" y1="310.349" x2="415.567" y2="313.114"/>
			<path style="fill:#0E3673;" d="M425.956,356.192c-0.473,2.081-0.745,3.281-0.745,3.281h30.951l0.233-3.281H425.956z"/>
			<path style="fill:none;stroke:#081E40;stroke-width:0.6606;stroke-miterlimit:10;" d="M401.707,340.828
				c-0.329-2.181-0.389-4.707-0.014-7.605l-1.219-6.469"/>
			
				<line style="fill:none;stroke:#081E40;stroke-width:0.6606;stroke-miterlimit:10;" x1="433.333" y1="323.708" x2="430.203" y2="337.49"/>
			
				<line style="fill:none;stroke:#081E40;stroke-width:0.6606;stroke-miterlimit:10;" x1="456.394" y1="356.192" x2="457.333" y2="339.973"/>
		</g>
		<g>
			<rect x="360.349" y="426.097" style="fill:#458AF5;" width="74.449" height="4.064"/>
			<polygon style="fill:#FFFFFF;" points="377.805,430.161 290.617,430.161 270.289,363.293 357.476,363.293 			"/>
			<polygon style="fill:#458AF5;" points="377.805,430.161 374.349,430.161 354.021,363.293 357.476,363.293 			"/>
			<path style="fill:none;stroke:#458AF5;stroke-width:0.6606;stroke-miterlimit:10;" d="M336.537,397.062
				c1.799,6.898-2.335,12.49-9.232,12.49c-6.898,0-13.948-5.592-15.747-12.49c-1.799-6.898,2.335-12.49,9.233-12.49
				C327.687,384.572,334.738,390.164,336.537,397.062z"/>
		</g>
		<g>
			<path style="fill:#FF6363;" d="M73.867,383.561c0,0-4.28,5.277-2.452,13.809c1.828,8.532,8.099,16.438,3.81,21.175
				l-22.024-28.011c-1.669-2.123-0.683-5.384,1.98-6.552l3.683-1.615c0.805-0.353,1.536-0.865,2.145-1.503l5.89-6.166
				L73.867,383.561z"/>
			<path style="fill:#FFC300;" d="M71.414,397.37c-0.33-1.539-0.456-2.968-0.449-4.283c-2.906-1.574-6.628-1.213-6.628-1.213
				l-5.923-9.309l-3.234,1.418c-2.664,1.168-3.649,4.429-1.98,6.552l22.024,28.011C79.513,413.808,73.242,405.902,71.414,397.37z"/>
			<path style="fill:#FF6363;" d="M200.471,409.605c0,0,1.503,6.627,9.34,10.463s17.928,3.794,19.001,10.093H193.18
				c-2.7,0-4.654-2.791-3.926-5.607l1.007-3.893c0.22-0.85,0.269-1.742,0.145-2.615l-1.206-8.441H200.471z"/>
			<path style="fill:#FFC300;" d="M209.811,420.068c-1.414-0.692-2.615-1.476-3.644-2.295c-3.033,1.311-5.05,4.461-5.05,4.461
				l-10.978-1.098l-0.884,3.418c-0.728,2.816,1.226,5.607,3.926,5.607h35.632C227.738,423.862,217.647,423.904,209.811,420.068z"/>
			<path style="fill:#FF6363;" d="M194.663,211.63l5.25,13.219l30.094-22.406c0,0,3.563-12.281,8.719-10.781
				c0,0,4.5-1.031,4.5,1.688c0,2.719-1.219,9.656-3.844,11.344s-5.156,2.438-5.156,2.438s-6.776,12.8-14.53,26.277
				c-11.813,20.531-31.632,29.71-42.601,7.773c-10.969-21.938-14.963-30.134-14.963-30.134L194.663,211.63z"/>
			
				<line style="fill:none;stroke:#A12A2A;stroke-width:0.6606;stroke-miterlimit:10;" x1="199.913" y1="224.849" x2="188.124" y2="233.919"/>
			<path style="fill:#A12A2A;" d="M174.401,235.788c3.625-1.867,6.111-5.169,7.629-7.803c1.558-2.704,4.123-4.681,7.102-5.61
				l8.718-2.719l-3.188-8.026l-32.531-0.584C162.132,211.046,165.467,217.89,174.401,235.788z"/>
			<path style="fill:#477344;" d="M170.195,247.911c0,0,2.281,2.813,1.844,14.344l31.625,148.5h-19.687
				c-6.469-30.375-21.938-56.531-18.563-70.875l-22.2-65.25l-11.885,54.987c-1.731,8.008-5.968,15.257-12.097,20.695l-42.13,37.38
				l-12.562-12c14.812-14.625,28.125-36.094,42-46.359l4.172-79.64L170.195,247.911z"/>
			<path style="fill:#0E3673;" d="M172.038,262.255c0.438-11.531-1.844-14.344-1.844-14.344l-59.484,1.781l-0.76,14.508
				c4.048,2.936,13.802,7.789,29.514,2.314c3.089-1.076,6.39-1.399,9.608-0.808l24.666,4.531L172.038,262.255z"/>
			<g>
				<path style="fill:#458AF5;" d="M267.664,150.294h-42.047v9.254l42.047,0c1.45,0,2.625-2.072,2.625-4.627
					S269.114,150.294,267.664,150.294z"/>
				<path style="fill:#0E3673;" d="M270.242,154.098c0.027,0.268,0.047,0.541,0.047,0.823c0,0.438-0.046,0.854-0.11,1.256
					c0.983,0.445,1.671,1.43,1.671,2.577v1.816c0,1.562-1.27,2.833-2.833,2.833h-44.784c-1.561,0-2.832-1.271-2.832-2.833v-1.816
					c0-1.562,1.271-2.833,2.832-2.833h1.353v-2h-1.353c-2.664,0-4.832,2.168-4.832,4.833v1.816c0,2.665,2.168,4.833,4.832,4.833
					h21.393l-73.586,245.351h2l73.586-245.351h21.392c2.665,0,4.833-2.168,4.833-4.833v-1.816
					C273.849,156.515,272.311,154.645,270.242,154.098z"/>
				<ellipse style="fill:#0E3673;" cx="225.617" cy="154.921" rx="2.625" ry="4.627"/>
			</g>
			<path style="fill:#0E3673;" d="M104.58,184.044c5.16-9.788,15.315-15.914,26.379-15.914h33.075
				c18.394,0,23.06,10.831,26.883,20.297c3.823,9.466,10.74,27.124,10.74,27.124h-26.795l-2.825,19.478l1.368,18.932h-66.444
				l1.456-40.595H89.123L104.58,184.044z"/>
			<path style="fill:#081E40;" d="M120.457,213.367h4.878l6.047-19.596c0,0,5.344,11.109,2.25,22.219
				c-3.094,11.109-3.234,21.938,0,28.406c3.234,6.469,5.063,9.566,5.063,9.566h-24.328l-3.656-22.081L120.457,213.367z"/>
			<path style="fill:none;stroke:#081E40;stroke-width:0.6606;stroke-miterlimit:10;" d="M132.226,190.536
				c0,0,3.094-15.328-9.703-19.547"/>
			<polygon style="fill:#081E40;" points="174.863,215.551 178.257,197.193 186.319,215.551 			"/>
			<path style="fill:none;stroke:#081E40;stroke-width:0.6606;stroke-miterlimit:10;" d="M178.163,193.771
				c0,0,4.031-13.734,1.125-19.266"/>
			<g>
				<path style="fill:#081E40;" d="M116.476,298.993l2.432,43.357c0.054,0.961,8.199,1.737,18.193,1.737s18.139-0.775,18.193-1.737
					l2.432-43.357H116.476z"/>
				<path style="fill:none;stroke:#081E40;stroke-width:0.6606;stroke-miterlimit:10;" d="M121.398,302.087h31.406
					c0,0-7.781-14.625-15.703-14.625C129.179,287.462,121.398,302.087,121.398,302.087z"/>
				<path style="fill:#458AF5;" d="M118.125,328.388c0.248,4.412,4.962,7.249,8.884,5.212c3.67-1.906,6.022-5.924,7.092-9.669
					c1.875-6.562,6-7.875,15.281-10.125c1.038-0.252,1.965-0.545,2.794-0.869c3.005-1.173,4.995-4.056,5.176-7.276l0.374-6.668
					h-41.25L118.125,328.388z"/>
			</g>
			<g>
				<path style="fill:#081E40;" d="M145.691,155.802c0,0-0.773-4.887-1.195-6.961s0.422-4.289,4.078-4.289c3.656,0,6.504,0,9.668,0
					c3.164,0,4.57,2.215,3.656,4.254c-0.914,2.039-2.496,1.758-4.395,1.758c-1.898,0-6.328,0-6.328,0L145.691,155.802z"/>
				<path style="fill:#FF6363;" d="M158.523,158.521c0.797-2.813-1.125-5.063-1.125-5.063l0.703-5.016h-6.891
					c-0.891,1.688-2.953,1.406-2.953,1.406l-1.125,4.781c0,0-1.582-2.801-3.422-1.031c-2.012,1.935,0.434,4.594,2.789,3.469
					l-2.142,9.166c-0.26,1.111-1.25,1.897-2.391,1.897h-0.804c0,0,0.068,5.501,7.358,5.501c7.29,0,9.608-5.501,9.608-5.501h-3.337
					l0.826-5.953C155.616,162.177,157.726,161.333,158.523,158.521z"/>
				
					<line style="fill:none;stroke:#A12A2A;stroke-width:0.6606;stroke-miterlimit:10;" x1="146.71" y1="167.849" x2="148.91" y2="171.657"/>
				<path style="fill:#A12A2A;" d="M155.616,162.177c-1.382,0.98-3.85,0.743-5.559,0.247c-0.828-0.24-1.479,0.701-0.964,1.392
					c0.801,1.074,2.462,2.278,5.892,2.911L155.616,162.177z"/>
			</g>
			<path style="fill:#FF6363;" d="M93.507,213.367h26.95l-6.417,19.789l19.043,45.624c0.4,0.959,1.103,1.762,2.001,2.285l5.06,2.952
				c1.117,0.652,1.925,1.727,2.238,2.982l0.796,3.183c0.179,0.715-0.362,1.407-1.099,1.407h-6.209c-1.088,0-2.056-0.689-2.413-1.717
				l-0.078-0.225c-0.132-0.38-0.452-0.657-0.844-0.747c-1.192-0.273-3.774-1.327-4.707-5.366c0,0-23.707-24.877-33.45-35.634
				c-6.553-7.236-7.435-13.864-5.257-21.025C90.872,221.122,93.507,213.367,93.507,213.367z"/>
			
				<line style="fill:none;stroke:#081E40;stroke-width:0.6606;stroke-miterlimit:10;" x1="140.038" y1="253.835" x2="171.806" y2="253.835"/>
			
				<line style="fill:none;stroke:#081E40;stroke-width:0.6606;stroke-miterlimit:10;" x1="143.213" y1="274.63" x2="147.63" y2="254.117"/>
		</g>
		<g>
			
				<rect x="494.514" y="162.341" transform="matrix(0.4447 0.8957 -0.8957 0.4447 425.0298 -351.5483)" style="fill:#FFE58F;" width="3.007" height="9.292"/>
			
				<rect x="231.568" y="259.727" transform="matrix(0.4447 0.8957 -0.8957 0.4447 366.2336 -61.945)" style="fill:#FFE58F;" width="3.007" height="9.292"/>
			
				<rect x="216.659" y="185.89" transform="matrix(0.4446 0.8957 -0.8957 0.4446 291.8225 -89.5942)" style="fill:#FFE58F;" width="3.007" height="9.292"/>
			
				<rect x="85.569" y="323.237" transform="matrix(0.6677 0.7444 -0.7444 0.6677 273.0049 44.126)" style="fill:#FFE58F;" width="3.007" height="9.292"/>
			
				<rect x="86.554" y="263.874" transform="matrix(-0.0466 0.9989 -0.9989 -0.0466 360.3877 193.0688)" style="fill:#FFE58F;" width="3.007" height="9.292"/>
			
				<rect x="146.307" y="120.307" transform="matrix(-0.5467 0.8373 -0.8373 -0.5467 333.2472 69.5082)" style="fill:#FFE58F;" width="3.007" height="9.292"/>
			
				<rect x="118.435" y="384.113" transform="matrix(0.8245 0.5659 -0.5659 0.8245 241.0553 0.3658)" style="fill:#FFE58F;" width="3.007" height="9.292"/>
			
				<rect x="507.987" y="251.422" transform="matrix(-0.6119 0.791 -0.791 -0.6119 1023.7744 9.7679)" style="fill:#FFE58F;" width="3.007" height="9.292"/>
			
				<rect x="625.465" y="347.469" transform="matrix(-0.6119 0.7909 -0.7909 -0.6119 1289.1084 71.6789)" style="fill:#FFE58F;" width="3.007" height="9.292"/>
			
				<rect x="582.77" y="141.168" transform="matrix(0.5331 0.8461 -0.8461 0.5331 396.1725 -426.2485)" style="fill:#FFE58F;" width="3.007" height="9.292"/>
			
				<rect x="373.095" y="69.174" transform="matrix(0.5331 0.8461 -0.8461 0.5331 237.3609 -282.4654)" style="fill:#FFE58F;" width="3.007" height="9.292"/>
			
				<rect x="625.465" y="294.348" transform="matrix(0.5331 0.8461 -0.8461 0.5331 545.7231 -390.8511)" style="fill:#FFE58F;" width="3.007" height="9.292"/>
			<path style="fill:none;stroke:#FFC7C7;stroke-width:0.75;stroke-miterlimit:10;" d="M616.721,177.773
				c0,3.391-2.749,6.14-6.14,6.14s-6.14-2.749-6.14-6.14c0-3.391,2.749-6.14,6.14-6.14S616.721,174.382,616.721,177.773z"/>
			<path style="fill:none;stroke:#FFC7C7;stroke-width:0.75;stroke-miterlimit:10;" d="M622.861,326.755
				c0,3.391-2.749,6.14-6.14,6.14c-3.391,0-6.14-2.749-6.14-6.14s2.749-6.14,6.14-6.14
				C620.112,320.615,622.861,323.364,622.861,326.755z"/>
			<circle style="fill:none;stroke:#FFC7C7;stroke-width:0.75;stroke-miterlimit:10;" cx="101.32" cy="150.294" r="6.14"/>
			<circle style="fill:none;stroke:#FFC7C7;stroke-width:0.75;stroke-miterlimit:10;" cx="64.538" cy="291.892" r="6.14"/>
			<path style="fill:none;stroke:#FFC7C7;stroke-width:0.75;stroke-miterlimit:10;" d="M290.717,73.82c0,3.391-2.749,6.14-6.14,6.14
				c-3.391,0-6.14-2.749-6.14-6.14s2.749-6.14,6.14-6.14C287.968,67.68,290.717,70.429,290.717,73.82z"/>
			<path style="fill:none;stroke:#FFC7C7;stroke-width:0.75;stroke-miterlimit:10;" d="M676.579,344.087
				c0,3.391-2.749,6.14-6.14,6.14c-3.391,0-6.14-2.749-6.14-6.14c0-3.391,2.749-6.14,6.14-6.14
				C673.83,337.947,676.579,340.696,676.579,344.087z"/>
			<circle style="fill:none;stroke:#FFC7C7;stroke-width:0.75;stroke-miterlimit:10;" cx="438.064" cy="73.82" r="6.14"/>
		</g>
	</g>
</g>
</svg>
